<svg width="208" height="44" viewBox="0 0 208 44" fill="none" xmlns="http://www.w3.org/2000/svg">
<g clip-path="url(#clip0_11577_114980)">
<g clip-path="url(#clip1_11577_114980)">
<path d="M40.4714 16.4981C39.1637 16.4788 37.8676 16.7522 36.6793 17.2991C35.568 17.8171 34.5819 18.568 33.7865 19.5019C32.9757 20.4589 32.346 21.5584 31.9319 22.7426C31.4947 23.9827 31.2732 25.2882 31.2771 26.6033C31.2674 27.9204 31.4889 29.2298 31.9319 30.4717C32.3517 31.6271 32.9796 32.6938 33.7865 33.6219C34.5819 34.5385 35.5699 35.2702 36.6793 35.7612C37.8772 36.2715 39.1657 36.5353 40.4676 36.5353C41.7695 36.5353 43.0579 36.2715 44.2559 35.7612C45.371 35.2625 46.3686 34.5327 47.1833 33.6219C47.9999 32.6996 48.6374 31.6309 49.0591 30.4717C49.5059 29.2317 49.7274 27.9223 49.7139 26.6033C49.7197 25.2882 49.4982 23.9827 49.0591 22.7426C48.6431 21.5545 48.0076 20.4551 47.1833 19.5019C46.3705 18.5738 45.3729 17.8228 44.2559 17.2991C43.0695 16.7522 41.7772 16.4788 40.4714 16.4981ZM49.8334 43.0167V39.93C48.5777 41.1913 47.0562 42.156 45.3787 42.7529C43.8071 43.2863 42.1585 43.5558 40.4984 43.5539C38.1411 43.5712 35.7991 43.1476 33.5978 42.3062C31.5255 41.5282 29.6285 40.344 28.0203 38.8209C26.4411 37.292 25.1854 35.4589 24.3322 33.4332C23.4251 31.2785 22.9686 28.9621 22.9937 26.6245C22.9725 24.2792 23.427 21.9531 24.3322 19.7869C25.1854 17.7458 26.4391 15.8934 28.0203 14.3434C29.6246 12.7972 31.5197 11.5841 33.5978 10.7753C35.7953 9.91461 38.1372 9.48136 40.4984 9.50061C42.1662 9.50061 43.8187 9.80485 45.3787 10.3921C47.0485 11.0449 48.5661 12.0366 49.8334 13.3055V10.0378H58.1977V43.0167H49.8334Z" fill="white"/>
<path d="M74.0845 0.423828H65.6355V43.1556H74.0845V0.423828Z" fill="white"/>
<path d="M16.5283 36.2978C16.1373 36.2978 15.7521 36.1996 15.4132 36.0051C15.0723 35.8125 14.7892 35.5333 14.5908 35.1964C14.0978 34.4685 13.8397 33.6078 13.8513 32.7298V16.8536H19.4287V9.71754H13.8513V0.496094H5.40222V9.71561H0V16.8517H5.43111V33.3267C5.43111 40.0257 8.94015 43.3761 15.9563 43.3761H16.7016C17.0483 43.3761 17.395 43.3549 17.7397 43.3126L18.7508 43.1932C18.9916 43.1701 19.2265 43.1084 19.448 43.0122V36.2939H16.5264L16.5283 36.2978Z" fill="white"/>
<path d="M97.0879 16.3781C95.083 16.278 93.105 16.8922 91.5104 18.113C90.037 19.4205 89.0259 21.1669 88.6253 23.0963H105.612C105.161 21.2478 104.168 19.5764 102.762 18.294C101.196 16.9596 99.1775 16.2741 97.1225 16.3781M113.015 37.4879C112.326 38.3447 111.525 39.1034 110.631 39.7465C109.57 40.5129 108.426 41.1599 107.222 41.6779C105.799 42.2998 104.312 42.7658 102.789 43.072C101.032 43.4166 99.2449 43.5841 97.4557 43.5745C94.9578 43.5919 92.4772 43.1432 90.143 42.2497C88.0399 41.4506 86.112 40.2472 84.4692 38.7087C82.8745 37.1952 81.6169 35.3621 80.7811 33.3287C79.8951 31.1682 79.4522 28.8537 79.4772 26.5199C79.4541 24.1823 79.8739 21.862 80.7175 19.6823C81.5071 17.6374 82.7224 15.7812 84.2805 14.2388C85.8828 12.683 87.7779 11.4602 89.8579 10.6419C94.5264 8.89541 99.6686 8.89541 104.335 10.6419C106.415 11.4564 108.312 12.6791 109.913 14.2388C111.475 15.7792 112.692 17.6355 113.481 19.6823C114.319 21.864 114.737 24.1823 114.716 26.5199V29.7337H88.5271C88.9624 31.7093 90.0544 33.4808 91.6221 34.7594C93.2996 36.0148 95.3565 36.6541 97.4499 36.5713C99.5434 36.5963 101.62 36.2016 103.557 35.4083C105.223 34.7555 106.719 33.7311 107.927 32.4121L113.015 37.4936V37.4879Z" fill="white"/>
<path d="M155.091 21.3404C154.879 20.2505 154.504 19.2011 153.976 18.2249C153.252 16.902 152.308 15.712 151.187 14.705C151.083 14.5933 150.985 14.4681 150.873 14.3564C149.269 12.8102 147.374 11.5971 145.296 10.7884C144.469 10.4707 143.622 10.2146 142.759 10.022C141.33 9.68506 139.865 9.51369 138.395 9.51369C137.145 9.51176 135.903 9.68314 134.701 10.022C134.301 10.1299 133.904 10.2569 133.517 10.4052C133.322 10.4745 133.133 10.5727 132.945 10.6555C131.5 11.3025 130.181 12.2056 129.054 13.3186V10.022H120.69V43.0144H130.156V24.4482C130.102 23.4758 130.266 22.5034 130.636 21.6023C131.005 20.7011 131.573 19.8943 132.296 19.2416C133.965 18.0034 135.988 17.3314 138.066 17.3218C140.144 17.3122 142.172 17.9688 143.853 19.1915C144.589 19.8462 145.169 20.6588 145.546 21.5695C145.924 22.4803 146.091 23.4623 146.035 24.4463V43.0124H155.363V23.5683C155.359 22.8077 155.28 22.049 155.126 21.3038" fill="white"/>
<path d="M170.273 9.9043H159.809L171.535 26.6161L159.432 43.0218H169.324L177.201 32.5622L184.952 43.0218H194.844L170.273 9.9043Z" fill="white"/>
<path d="M184.702 9.9043L179.933 17.7162L185.128 24.421L195.017 9.9043H184.702Z" fill="white"/>
<path d="M203.528 42.9447C206.431 42.4736 208.403 39.7388 207.931 36.8363C207.46 33.9339 204.725 31.9629 201.822 32.434C198.919 32.9052 196.947 35.64 197.419 38.5425C197.89 41.4449 200.625 43.4159 203.528 42.9447Z" fill="#3399FF"/>
</g>
</g>
<defs>
<clipPath id="clip0_11577_114980">
<rect width="208" height="43.1515" fill="white" transform="translate(0 0.423828)"/>
</clipPath>
<clipPath id="clip1_11577_114980">
<rect width="208" height="43.1515" fill="white" transform="translate(0 0.423828)"/>
</clipPath>
</defs>
</svg>
