<svg width="24" height="24" version="1.1" xmlns="http://www.w3.org/2000/svg" desc="Created with imagetracer.js version 1.2.6" ><path fill="rgb(0,0,0)" stroke="rgb(0,0,0)" stroke-width="1" opacity="0.07058823529411765" d="M 0.5 8 L 3 8.5 L 0.5 9 L 0.5 8 Z " /><path fill="rgb(0,0,0)" stroke="rgb(0,0,0)" stroke-width="1" opacity="0.07058823529411765" d="M 6.5 8 L 9 8.5 L 6.5 9 L 6.5 8 Z " /><path fill="rgb(0,0,0)" stroke="rgb(0,0,0)" stroke-width="1" opacity="0.07058823529411765" d="M 15.5 8 L 18 8.5 L 15.5 9 L 15.5 8 Z " /><path fill="rgb(0,0,0)" stroke="rgb(0,0,0)" stroke-width="1" opacity="0.07058823529411765" d="M 21.5 8 L 24 8.5 L 21.5 9 L 21.5 8 Z " /><path fill="rgb(0,0,0)" stroke="rgb(0,0,0)" stroke-width="1" opacity="0.07058823529411765" d="M 0 10 Q 4.1 8.7 3 12 Q -1.1 13.3 0 10 Z " /><path fill="rgb(0,0,0)" stroke="rgb(0,0,0)" stroke-width="1" opacity="0.07058823529411765" d="M 6.5 10 Q 8.8 9.3 8 11.5 L 6.5 10 Z " /><path fill="rgb(0,0,0)" stroke="rgb(0,0,0)" stroke-width="1" opacity="0.07058823529411765" d="M 11 10 Q 14 9 13 12 Q 10 13 11 10 Z " /><path fill="rgb(0,0,0)" stroke="rgb(0,0,0)" stroke-width="1" opacity="0.07058823529411765" d="M 16 10 L 18 10.5 L 16 11.5 L 16 10 Z " /><path fill="rgb(0,0,0)" stroke="rgb(0,0,0)" stroke-width="1" opacity="0.07058823529411765" d="M 21 10 Q 25.1 8.7 24 12 Q 19.9 13.3 21 10 Z " /><path fill="rgb(0,0,0)" stroke="rgb(0,0,0)" stroke-width="1" opacity="0.07058823529411765" d="M 0.5 13 L 4 13.5 L 0.5 14 L 0.5 13 Z " /><path fill="rgb(0,0,0)" stroke="rgb(0,0,0)" stroke-width="1" opacity="0.07058823529411765" d="M 20.5 13 L 24 13.5 L 20.5 14 L 20.5 13 Z " /><path fill="rgb(0,0,0)" stroke="rgb(0,0,0)" stroke-width="1" opacity="0.8117647058823529" d="M 3.5 4 L 4.5 6 L 3.5 4 Z " /><path fill="rgb(0,0,0)" stroke="rgb(0,0,0)" stroke-width="1" opacity="0.8117647058823529" d="M 20.5 4 L 19.5 6 L 20.5 4 Z " /><path fill="rgb(0,0,0)" stroke="rgb(0,0,0)" stroke-width="1" opacity="0.8117647058823529" d="M 8.5 18 L 7.5 20 L 8.5 18 Z " /><path fill="rgb(0,0,0)" stroke="rgb(0,0,0)" stroke-width="1" opacity="0.8117647058823529" d="M 15.5 18 L 16.5 20 L 15.5 18 Z " /><path fill="rgb(0,0,0)" stroke="rgb(0,0,0)" stroke-width="1" opacity="0" d="M 0 0 L 24 0 L 24 8 Q 20.3 9.2 22 4 L 19 4 L 18 8 Q 14.3 9.5 15 6.5 L 14 4 L 10 4 L 10 5.5 L 9 8 Q 5.2 9.5 6 6.5 L 5 4 L 2 4 Q 3.7 9.2 0 8 L 0 0 Z " /><path fill="rgb(0,0,0)" stroke="rgb(0,0,0)" stroke-width="1" opacity="0" d="M 0 14 Q 5.2 11.9 4 16.5 L 5 20 L 9 20 L 9 18.5 L 10 14 Q 15.6 11.8 14 17.5 L 15 20 Q 20.2 22.1 19 17.5 L 20 14 L 24 14 L 24 24 L 0 24 L 0 14 Z " /><path fill="rgb(0,0,0)" stroke="rgb(0,0,0)" stroke-width="1" opacity="0.9607843137254902" d="M 9.5 9 L 10.5 11 L 9.5 9 Z " /><path fill="rgb(0,0,0)" stroke="rgb(0,0,0)" stroke-width="1" opacity="0.9607843137254902" d="M 14.5 9 L 13.5 11 L 14.5 9 Z " /><path fill="rgb(0,0,0)" stroke="rgb(0,0,0)" stroke-width="1" opacity="0.996078431372549" d="M 5.5 11 L 4.5 13 L 5.5 11 Z " /><path fill="rgb(0,0,0)" stroke="rgb(0,0,0)" stroke-width="1" opacity="0.996078431372549" d="M 18.5 11 L 19.5 13 L 18.5 11 Z " /><path fill="rgb(0,0,0)" stroke="rgb(0,0,0)" stroke-width="1" opacity="1" d="M 3.5 5 L 5 7.5 L 6 15.5 L 5 15.5 L 3.5 5 Z " /><path fill="rgb(0,0,0)" stroke="rgb(0,0,0)" stroke-width="1" opacity="1" d="M 11 5 Q 13.7 3.9 13 6.5 L 16 17 Q 19 16 18 19 Q 15.3 20.1 16 17.5 L 13 7 Q 10 5.8 11 9.5 L 8 19 Q 5 20 6 17 Q 9 18.3 8 14.5 L 11 5 Z " /><path fill="rgb(0,0,0)" stroke="rgb(0,0,0)" stroke-width="1" opacity="1" d="M 20.5 5 L 21 7.5 L 18.5 16 L 18 12.5 L 20.5 5 Z " /><path fill="rgb(0,0,0)" stroke="rgb(0,0,0)" stroke-width="1" opacity="0.8862745098039215" d="M 1.5 12 L 4 12.5 L 1.5 13 L 1.5 12 Z " /><path fill="rgb(0,0,0)" stroke="rgb(0,0,0)" stroke-width="1" opacity="0.8862745098039215" d="M 10.5 12 L 14 12.5 L 10.5 13 L 10.5 12 Z " /><path fill="rgb(0,0,0)" stroke="rgb(0,0,0)" stroke-width="1" opacity="0.8862745098039215" d="M 20.5 12 L 23 12.5 L 20.5 13 L 20.5 12 Z " /><path fill="rgb(0,0,0)" stroke="rgb(0,0,0)" stroke-width="1" opacity="0.8862745098039215" d="M 8.5 13 L 9.5 15 L 8.5 13 Z " /><path fill="rgb(0,0,0)" stroke="rgb(0,0,0)" stroke-width="1" opacity="0.8862745098039215" d="M 15.5 13 L 14.5 15 L 15.5 13 Z " /></svg>